<svg xmlns="http://www.w3.org/2000/svg" viewBox="0 0 512 512"><path d="M467.478 256.804c0 17.519-14.202 31.722-31.722 31.722H422.2a168.242 168.242 0 01-26.253 63.363l9.591 9.591c12.388 12.388 12.388 32.473 0 44.861-12.388 12.388-32.473 12.388-44.861 0l-9.591-9.591a168.232 168.232 0 01-63.363 26.253v13.556c0 17.519-14.202 31.722-31.722 31.722s-31.722-14.202-31.722-31.722v-13.556a168.242 168.242 0 01-63.363-26.253l-9.591 9.591c-12.388 12.388-32.473 12.388-44.861 0-12.388-12.388-12.388-32.473 0-44.861l9.591-9.591a168.232 168.232 0 01-26.253-63.363H76.243c-17.519 0-31.722-14.202-31.722-31.722 0-17.519 14.202-31.722 31.722-31.722h13.556a168.242 168.242 0 0126.253-63.363l-9.591-9.591c-12.388-12.388-12.388-32.473 0-44.861 12.388-12.388 32.473-12.388 44.861 0l9.591 9.591a168.232 168.232 0 0163.363-26.253V77.047c0-17.519 14.202-31.722 31.722-31.722s31.722 14.202 31.722 31.722v13.556a168.242 168.242 0 0163.363 26.253l9.591-9.591c12.388-12.388 32.473-12.388 44.861 0 12.388 12.388 12.388 32.473 0 44.861l-9.591 9.591a168.232 168.232 0 0126.253 63.363h13.558c17.521.002 31.723 14.204 31.723 31.724z" fill="#a5a5a5"/><path d="M378.435 256.804c0 67.618-54.816 122.435-122.435 122.435s-122.435-54.816-122.435-122.435S188.381 134.369 256 134.369s122.435 54.816 122.435 122.435z" fill="#cccac4"/><path d="M289.391 256.804c0 18.442-14.949 33.391-33.391 33.391s-33.391-14.949-33.391-33.391 14.949-33.391 33.391-33.391 33.391 14.95 33.391 33.391z" fill="#fff"/><path d="M316.996 305.993a8.347 8.347 0 010 11.805c-16.292 16.294-37.955 25.266-60.996 25.266-47.565 0-86.261-38.697-86.261-86.261a8.348 8.348 0 1116.696 0c0 38.358 31.208 69.565 69.565 69.565 18.582 0 36.051-7.237 49.19-20.376a8.348 8.348 0 0111.806.001zm14.114-24.451a8.349 8.349 0 00-11.123 3.958c-.232.487-.467.971-.71 1.45a8.349 8.349 0 0014.908 7.516c.301-.595.594-1.195.882-1.801a8.347 8.347 0 00-3.957-11.123zM256 170.544c-22.468 0-43.74 8.59-59.902 24.19a8.348 8.348 0 0011.594 12.012c13.033-12.58 30.188-19.506 48.307-19.506 38.358 0 69.565 31.206 69.565 69.565a8.349 8.349 0 0016.696 0c.001-47.565-38.695-86.261-86.26-86.261zm-73.364 60.716a8.323 8.323 0 003.43.741 8.35 8.35 0 007.613-4.914c.183-.404.37-.808.559-1.208a8.347 8.347 0 00-3.957-11.123 8.346 8.346 0 00-11.123 3.957c-.237.499-.469.999-.696 1.504a8.347 8.347 0 004.174 11.043z" fill="#777"/><path d="M498.34 193.969a8.345 8.345 0 019.57 6.912l.177 1.099a8.349 8.349 0 01-16.482 2.658l-.177-1.099a8.345 8.345 0 016.912-9.57zm-21.309-37.682a8.348 8.348 0 1014.8-7.725l-.515-.987c-2.134-4.086-7.176-5.672-11.263-3.537a8.347 8.347 0 00-3.537 11.263l.515.986zm25.555 116.341a8.343 8.343 0 00-9.352 7.205C477.3 402.671 371.722 495.304 247.652 495.304a8.349 8.349 0 000 16.696c64.612 0 126.812-23.561 175.143-66.342 47.91-42.408 78.805-100.537 86.995-163.677a8.348 8.348 0 00-7.204-9.353zm1.066-33.323a8.35 8.35 0 00-8.348 8.349l-.002 1.145a8.348 8.348 0 008.313 8.382h.036a8.348 8.348 0 008.348-8.313l.001-1.217a8.348 8.348 0 00-8.348-8.346zM20.573 308.461l-.177-1.099c-.735-4.551-5.014-7.651-9.57-6.912a8.347 8.347 0 00-6.912 9.57l.177 1.099a8.349 8.349 0 009.57 6.912 8.346 8.346 0 006.912-9.57zm14.395 47.252a8.347 8.347 0 00-11.263-3.537 8.347 8.347 0 00-3.537 11.263l.515.987a8.348 8.348 0 1014.8-7.725l-.515-.988zM272.696 8.348A8.349 8.349 0 00264.348 0C199.736 0 137.535 23.561 89.205 66.342 41.295 108.751 10.4 166.88 2.209 230.019a8.347 8.347 0 008.289 9.422 8.35 8.35 0 008.268-7.275C34.7 109.329 140.278 16.696 264.348 16.696a8.349 8.349 0 008.348-8.348zm-256 255.996l.002-1.145a8.348 8.348 0 00-8.313-8.382h-.036a8.348 8.348 0 00-8.348 8.313L0 264.348a8.348 8.348 0 1016.696-.004z" fill="#84a7b7"/></svg>